# xmcd
#
# Track frame offsets:
#	150
#	15246
#	29391
#	45361
#	64213
#	76565
#	92920
#	106755
#	122017
#	138275
#	156751
#	172851
#	186296
#	200238
#	213942
#	228928
#	246111
#	262924
#	275288
#	289952
#
# Disc length: 4073 seconds
#
# Revision: 1
# Processed by: cddbd v1.5.2PL0 Copyright (c) Steve Scherf et al.
# Submitted via: audiograbber 1.83.01
#
DISCID=050fe714
DTITLE=Gaucho da Fronteira - As 20 Mais
DYEAR=1900
DGENRE=
TTITLE0=Pisca Pisca
TTITLE1=Cara e Coracao Novo
TTITLE2=Rindo a Toa
TTITLE3=Pra la de Vadio
TTITLE4=Segura  o Tche
TTITLE5=Balanca Brasil
TTITLE6=Eramos Felizes e nao Sabiamos
TTITLE7=Churrasco la em Casa
TTITLE8=Sumanta de Amor
TTITLE9=Gaucho Macho
TTITLE10=A Garagem
TTITLE11=Baile das Calca Curtas
TTITLE12=Forrozao
TTITLE13=Nheco Vari Nheco Fum
TTITLE14=Joao Tatu
TTITLE15=Venrao Sambado
TTITLE16=Nao Pode Mais
TTITLE17=O Dedo
TTITLE18=O Calorao
TTITLE19=Na Cumbuca da Maruca
EXTD=
EXTT0=
EXTT1=
EXTT2=
EXTT3=
EXTT4=
EXTT5=
EXTT6=
EXTT7=
EXTT8=
EXTT9=
EXTT10=
EXTT11=
EXTT12=
EXTT13=
EXTT14=
EXTT15=
EXTT16=
EXTT17=
EXTT18=
EXTT19=
PLAYORDER=
